<svg xmlns="http://www.w3.org/2000/svg" xmlns:xlink="http://www.w3.org/1999/xlink" width="150" zoomAndPan="magnify" viewBox="0 0 112.5 112.499997" height="150" preserveAspectRatio="xMidYMid meet" version="1.0"><defs><clipPath id="8d407b0544"><path d="M 0 0 L 112.003906 0 L 112.003906 112.003906 L 0 112.003906 Z M 0 0 " clip-rule="nonzero"/></clipPath><clipPath id="dd4cb77b29"><path d="M 30.484375 30.101562 L 43.984375 30.101562 L 43.984375 75.101562 L 30.484375 75.101562 Z M 30.484375 30.101562 " clip-rule="nonzero"/></clipPath><clipPath id="fba68c619a"><path d="M 58.160156 34 L 72 34 L 72 75 L 58.160156 75 Z M 58.160156 34 " clip-rule="nonzero"/></clipPath><clipPath id="fdc0cde05e"><path d="M 70.90625 42.707031 L 73.15625 42.707031 L 73.15625 43.570312 L 70.90625 43.570312 Z M 70.90625 42.707031 " clip-rule="nonzero"/></clipPath><clipPath id="7b23314bda"><path d="M 70.90625 46.160156 L 73.15625 46.160156 L 73.15625 46.851562 L 70.90625 46.851562 Z M 70.90625 46.160156 " clip-rule="nonzero"/></clipPath><clipPath id="f5ffcf97f7"><path d="M 70.90625 39.425781 L 73.15625 39.425781 L 73.15625 40.117188 L 70.90625 40.117188 Z M 70.90625 39.425781 " clip-rule="nonzero"/></clipPath><clipPath id="1dc98d0873"><path d="M 70.90625 49.441406 L 73.15625 49.441406 L 73.15625 50.128906 L 70.90625 50.128906 Z M 70.90625 49.441406 " clip-rule="nonzero"/></clipPath><clipPath id="d219b35de7"><path d="M 70.90625 52.722656 L 73.15625 52.722656 L 73.15625 53.585938 L 70.90625 53.585938 Z M 70.90625 52.722656 " clip-rule="nonzero"/></clipPath><clipPath id="a3e778614c"><path d="M 70.90625 59.457031 L 73.15625 59.457031 L 73.15625 60.144531 L 70.90625 60.144531 Z M 70.90625 59.457031 " clip-rule="nonzero"/></clipPath><clipPath id="bcd0537118"><path d="M 70.90625 56.175781 L 73.15625 56.175781 L 73.15625 56.867188 L 70.90625 56.867188 Z M 70.90625 56.175781 " clip-rule="nonzero"/></clipPath><clipPath id="e554fd0f90"><path d="M 62.941406 30.101562 L 73.15625 30.101562 L 73.15625 39.597656 L 62.941406 39.597656 Z M 62.941406 30.101562 " clip-rule="nonzero"/></clipPath><clipPath id="d0e38397c9"><path d="M 58.160156 30.101562 L 68 30.101562 L 68 40 L 58.160156 40 Z M 58.160156 30.101562 " clip-rule="nonzero"/></clipPath><clipPath id="af9d9fe6fa"><path d="M 61 30.101562 L 73 30.101562 L 73 39 L 61 39 Z M 61 30.101562 " clip-rule="nonzero"/></clipPath><clipPath id="e03133d069"><path d="M 58.160156 30.101562 L 69 30.101562 L 69 39 L 58.160156 39 Z M 58.160156 30.101562 " clip-rule="nonzero"/></clipPath><clipPath id="3a95ce8276"><path d="M 65 30.101562 L 66 30.101562 L 66 31 L 65 31 Z M 65 30.101562 " clip-rule="nonzero"/></clipPath><clipPath id="ce315f15cd"><path d="M 62 30.101562 L 73 30.101562 L 73 37 L 62 37 Z M 62 30.101562 " clip-rule="nonzero"/></clipPath><clipPath id="87a4ff1f35"><path d="M 58.160156 30.101562 L 68 30.101562 L 68 38 L 58.160156 38 Z M 58.160156 30.101562 " clip-rule="nonzero"/></clipPath><clipPath id="bf7ce0f847"><path d="M 63.828125 30.101562 L 73.15625 30.101562 L 73.15625 40.460938 L 63.828125 40.460938 Z M 63.828125 30.101562 " clip-rule="nonzero"/></clipPath><clipPath id="93d0581971"><path d="M 58.160156 30.101562 L 67 30.101562 L 67 41 L 58.160156 41 Z M 58.160156 30.101562 " clip-rule="nonzero"/></clipPath><clipPath id="e9d0dd2679"><path d="M 58.160156 35 L 70 35 L 70 70 L 58.160156 70 Z M 58.160156 35 " clip-rule="nonzero"/></clipPath><clipPath id="5e6fe15b30"><path d="M 58.164062 63.425781 L 70.019531 63.425781 L 70.019531 74.640625 L 58.164062 74.640625 Z M 58.164062 63.425781 " clip-rule="nonzero"/></clipPath><clipPath id="feb0bac7d6"><path d="M 58.164062 63.425781 L 70.199219 63.425781 L 70.199219 74.640625 L 58.164062 74.640625 Z M 58.164062 63.425781 " clip-rule="nonzero"/></clipPath><clipPath id="84138dfabc"><path d="M 61.703125 68.261719 L 73.15625 68.261719 L 73.15625 74.640625 L 61.703125 74.640625 Z M 61.703125 68.261719 " clip-rule="nonzero"/></clipPath></defs><g clip-path="url(#8d407b0544)"><path fill="#ffffff" d="M 0 0 L 112.5 0 L 112.5 120 L 0 120 Z M 0 0 " fill-opacity="1" fill-rule="nonzero"/><path fill="#ffffff" d="M 0 0 L 112.5 0 L 112.5 112.5 L 0 112.5 Z M 0 0 " fill-opacity="1" fill-rule="nonzero"/><path fill="#ffffff" d="M 0 0 L 112.5 0 L 112.5 112.5 L 0 112.5 Z M 0 0 " fill-opacity="1" fill-rule="nonzero"/></g><g clip-path="url(#dd4cb77b29)"><path fill="#000000" d="M 40.617188 62.683594 C 42.632812 63.832031 43.984375 65.984375 43.984375 68.441406 C 43.984375 72.117188 40.960938 75.097656 37.234375 75.097656 C 33.511719 75.097656 30.484375 72.117188 30.484375 68.441406 C 30.484375 65.984375 31.835938 63.832031 33.855469 62.683594 L 33.855469 33.421875 C 33.855469 31.597656 35.375 30.101562 37.222656 30.101562 C 39.074219 30.101562 40.59375 31.597656 40.59375 33.421875 L 40.59375 39.5 L 42.910156 39.5 L 42.910156 40.351562 L 40.59375 40.351562 L 40.59375 45.730469 L 42.910156 45.730469 L 42.910156 46.582031 L 40.59375 46.582031 L 40.59375 51.960938 L 42.910156 51.960938 L 42.910156 52.8125 L 40.59375 52.8125 L 40.59375 58.191406 L 42.910156 58.191406 L 42.910156 59.042969 L 40.59375 59.042969 L 40.59375 62.714844 Z M 38.542969 63.917969 L 38.542969 50.179688 L 35.925781 50.179688 L 35.925781 63.917969 C 33.921875 64.476562 32.457031 66.289062 32.457031 68.441406 C 32.457031 71.042969 34.597656 73.152344 37.234375 73.152344 C 39.875 73.152344 42.011719 71.042969 42.011719 68.441406 C 42.011719 66.289062 40.550781 64.476562 38.542969 63.917969 Z M 39.398438 63.371094 L 39.398438 33.421875 C 39.398438 32.253906 38.421875 31.292969 37.234375 31.292969 C 36.050781 31.292969 35.074219 32.253906 35.074219 33.421875 L 35.074219 63.371094 L 34.464844 63.722656 C 32.757812 64.695312 31.695312 66.496094 31.695312 68.453125 C 31.695312 71.46875 34.175781 73.90625 37.222656 73.90625 C 40.285156 73.90625 42.753906 71.460938 42.753906 68.453125 C 42.753906 66.496094 41.703125 64.703125 39.984375 63.722656 L 39.375 63.371094 Z M 39.398438 63.371094 " fill-opacity="1" fill-rule="evenodd"/></g><g clip-path="url(#fba68c619a)"><path fill="#5376c1" d="M 67.546875 51.136719 C 67.546875 50.023438 67.546875 48.910156 67.546875 47.800781 C 67.542969 44.851562 67.546875 41.90625 67.539062 38.960938 C 67.539062 37.984375 67.070312 37.25 66.175781 36.828125 C 64.53125 36.050781 62.707031 37.179688 62.699219 38.976562 C 62.683594 44.574219 62.679688 50.167969 62.675781 55.765625 C 62.671875 58.140625 62.667969 60.519531 62.707031 62.898438 C 62.714844 63.453125 62.570312 63.800781 62.097656 64.15625 C 60.273438 65.527344 59.75 67.976562 60.789062 69.964844 C 61.839844 71.976562 64.195312 73.019531 66.402344 72.390625 C 68.328125 71.839844 69.539062 70.566406 69.890625 68.640625 C 70.242188 66.691406 69.492188 65.117188 67.875 63.941406 C 67.632812 63.765625 67.535156 63.597656 67.539062 63.304688 C 67.546875 59.25 67.546875 55.191406 67.546875 51.136719 Z M 69.484375 50.632812 C 69.484375 54.558594 69.484375 58.484375 69.480469 62.414062 C 69.480469 62.640625 69.53125 62.800781 69.707031 62.96875 C 71.691406 64.847656 72.390625 67.125 71.613281 69.703125 C 70.832031 72.28125 68.972656 73.84375 66.265625 74.351562 C 62.3125 75.097656 58.46875 72.046875 58.34375 68.121094 C 58.28125 66.074219 59.015625 64.351562 60.542969 62.957031 C 60.730469 62.785156 60.761719 62.617188 60.761719 62.394531 C 60.757812 54.613281 60.757812 46.828125 60.757812 39.042969 C 60.761719 37.074219 61.960938 35.457031 63.824219 34.886719 C 66.613281 34.039062 69.472656 36.066406 69.480469 38.921875 C 69.488281 42.824219 69.480469 46.730469 69.484375 50.632812 " fill-opacity="1" fill-rule="nonzero"/></g><g clip-path="url(#fdc0cde05e)"><path fill="#f8a30e" d="M 70.964844 42.820312 C 71.691406 42.820312 72.414062 42.820312 73.148438 42.820312 C 73.148438 43.011719 73.148438 43.199219 73.148438 43.402344 C 72.429688 43.402344 71.703125 43.402344 70.964844 43.402344 C 70.964844 43.21875 70.964844 43.035156 70.964844 42.820312 " fill-opacity="1" fill-rule="nonzero"/></g><g clip-path="url(#7b23314bda)"><path fill="#f8a30e" d="M 70.953125 46.75 C 70.953125 46.546875 70.953125 46.367188 70.953125 46.167969 C 71.6875 46.167969 72.417969 46.167969 73.152344 46.167969 C 73.152344 46.367188 73.152344 46.550781 73.152344 46.75 C 72.417969 46.75 71.699219 46.75 70.953125 46.75 " fill-opacity="1" fill-rule="nonzero"/></g><g clip-path="url(#f5ffcf97f7)"><path fill="#f8a30e" d="M 70.953125 40.054688 C 70.953125 39.855469 70.953125 39.675781 70.953125 39.480469 C 71.6875 39.480469 72.40625 39.480469 73.148438 39.480469 C 73.148438 39.667969 73.148438 39.851562 73.148438 40.054688 C 72.429688 40.054688 71.699219 40.054688 70.953125 40.054688 " fill-opacity="1" fill-rule="nonzero"/></g><g clip-path="url(#1dc98d0873)"><path fill="#f8a30e" d="M 70.957031 50.085938 C 70.957031 49.894531 70.957031 49.714844 70.957031 49.515625 C 71.691406 49.515625 72.414062 49.515625 73.152344 49.515625 C 73.152344 49.710938 73.152344 49.890625 73.152344 50.085938 C 72.429688 50.085938 71.707031 50.085938 70.957031 50.085938 " fill-opacity="1" fill-rule="nonzero"/></g><g clip-path="url(#d219b35de7)"><path fill="#f8a30e" d="M 73.15625 52.859375 C 73.15625 53.058594 73.15625 53.238281 73.15625 53.429688 C 72.421875 53.429688 71.703125 53.429688 70.964844 53.429688 C 70.964844 53.246094 70.964844 53.0625 70.964844 52.859375 C 71.6875 52.859375 72.410156 52.859375 73.15625 52.859375 " fill-opacity="1" fill-rule="nonzero"/></g><path fill="#db5f6e" d="M 66.210938 54.722656 C 66.210938 57.785156 66.214844 60.847656 66.199219 63.910156 C 66.199219 64.210938 66.34375 64.292969 66.578125 64.386719 C 68.253906 65.058594 69.144531 66.59375 68.925781 68.402344 C 68.734375 69.960938 67.386719 71.285156 65.71875 71.554688 C 63.847656 71.851562 61.96875 70.699219 61.425781 68.917969 C 60.871094 67.101562 61.789062 65.160156 63.585938 64.421875 C 63.933594 64.277344 64.042969 64.121094 64.042969 63.753906 C 64.027344 57.804688 64.023438 46.582031 64.023438 40.628906 C 64.023438 40.605469 64.023438 40.578125 64.023438 40.550781 C 64.023438 39.707031 64.417969 39.226562 65.109375 39.222656 C 65.800781 39.222656 66.199219 39.703125 66.199219 40.542969 C 66.199219 43.511719 66.210938 51.753906 66.210938 54.722656 " fill-opacity="1" fill-rule="nonzero"/><g clip-path="url(#a3e778614c)"><path fill="#f8a30e" d="M 70.960938 59.542969 C 71.6875 59.542969 72.410156 59.542969 73.144531 59.542969 C 73.144531 59.734375 73.144531 59.917969 73.144531 60.125 C 72.425781 60.125 71.699219 60.125 70.960938 60.125 C 70.960938 59.941406 70.960938 59.757812 70.960938 59.542969 " fill-opacity="1" fill-rule="nonzero"/></g><g clip-path="url(#bcd0537118)"><path fill="#f8a30e" d="M 70.953125 56.777344 C 70.953125 56.578125 70.953125 56.398438 70.953125 56.203125 C 71.683594 56.203125 72.402344 56.203125 73.144531 56.203125 C 73.144531 56.390625 73.144531 56.574219 73.144531 56.777344 C 72.425781 56.777344 71.699219 56.777344 70.953125 56.777344 " fill-opacity="1" fill-rule="nonzero"/></g><path stroke-linecap="round" transform="matrix(0.0176964, 0, 0, -0.0172678, 58.163859, 74.63908)" fill="none" stroke-linejoin="miter" d="M 403.076624 2511.352849 L 403.076624 2372.230437 " stroke="#293982" stroke-width="20" stroke-opacity="1" stroke-miterlimit="10"/><g clip-path="url(#e554fd0f90)"><path stroke-linecap="round" transform="matrix(0.0176964, 0, 0, -0.0172678, 58.163859, 74.63908)" fill="none" stroke-linejoin="miter" d="M 646.990612 2417.473498 L 554.50196 2313.414458 " stroke="#293982" stroke-width="20" stroke-opacity="1" stroke-miterlimit="10"/></g><g clip-path="url(#d0e38397c9)"><path stroke-linecap="round" transform="matrix(0.0176964, 0, 0, -0.0172678, 58.163859, 74.63908)" fill="none" stroke-linejoin="miter" d="M 138.192655 2417.473498 L 230.681307 2313.414458 " stroke="#293982" stroke-width="20" stroke-opacity="1" stroke-miterlimit="10"/></g><g clip-path="url(#af9d9fe6fa)"><path stroke-linecap="round" transform="matrix(0.0176964, 0, 0, -0.0172678, 58.163859, 74.63908)" fill="none" stroke-linejoin="miter" d="M 518.96336 2436.475583 L 489.826124 2356.847796 " stroke="#293982" stroke-width="20" stroke-opacity="1" stroke-miterlimit="10"/></g><g clip-path="url(#e03133d069)"><path stroke-linecap="round" transform="matrix(0.0176964, 0, 0, -0.0172678, 58.163859, 74.63908)" fill="none" stroke-linejoin="miter" d="M 282.995891 2436.475583 L 312.353865 2356.847796 " stroke="#293982" stroke-width="20" stroke-opacity="1" stroke-miterlimit="10"/></g><g clip-path="url(#3a95ce8276)"><path stroke-linecap="round" transform="matrix(0.0176964, 0, 0, -0.0172678, 58.163859, 74.63908)" fill="none" stroke-linejoin="miter" d="M 403.076624 2543.927853 L 403.076624 2569.263967 " stroke="#293982" stroke-width="20" stroke-opacity="1" stroke-miterlimit="10"/></g><g clip-path="url(#ce315f15cd)"><path stroke-linecap="round" transform="matrix(0.0176964, 0, 0, -0.0172678, 58.163859, 74.63908)" fill="none" stroke-linejoin="miter" d="M 530.883139 2466.109788 L 535.739345 2479.908922 " stroke="#293982" stroke-width="20" stroke-opacity="1" stroke-miterlimit="10"/></g><g clip-path="url(#87a4ff1f35)"><path stroke-linecap="round" transform="matrix(0.0176964, 0, 0, -0.0172678, 58.163859, 74.63908)" fill="none" stroke-linejoin="miter" d="M 272.842006 2461.133052 L 269.97243 2469.729233 " stroke="#293982" stroke-width="20" stroke-opacity="1" stroke-miterlimit="10"/></g><g clip-path="url(#bf7ce0f847)"><path stroke-linecap="round" transform="matrix(0.0176964, 0, 0, -0.0172678, 58.163859, 74.63908)" fill="none" stroke-linejoin="miter" d="M 609.906856 2270.885981 L 656.482288 2302.782339 " stroke="#293982" stroke-width="20" stroke-opacity="1" stroke-miterlimit="10"/></g><g clip-path="url(#93d0581971)"><path stroke-linecap="round" transform="matrix(0.0176964, 0, 0, -0.0172678, 58.163859, 74.63908)" fill="none" stroke-linejoin="miter" d="M 179.691143 2270.885981 L 133.336449 2302.782339 " stroke="#293982" stroke-width="20" stroke-opacity="1" stroke-miterlimit="10"/></g><path fill="#f68395" d="M 63.132812 68.175781 C 62.519531 66.980469 62.703125 65.65625 63.339844 64.535156 C 61.707031 65.34375 60.898438 67.1875 61.425781 68.917969 C 61.96875 70.699219 63.847656 71.851562 65.71875 71.554688 C 66.289062 71.460938 66.816406 71.246094 67.277344 70.941406 C 65.488281 70.753906 63.90625 69.910156 63.132812 68.175781 " fill-opacity="1" fill-rule="nonzero"/><path fill="#db5f6e" d="M 68.925781 68.402344 C 69.144531 66.59375 68.253906 65.058594 66.578125 64.386719 C 66.34375 64.292969 66.199219 64.210938 66.199219 63.910156 C 66.214844 60.847656 66.210938 57.785156 66.210938 54.722656 C 66.210938 51.753906 66.199219 43.511719 66.199219 40.542969 C 66.199219 39.703125 65.800781 39.222656 65.109375 39.222656 C 64.417969 39.226562 64.023438 39.707031 64.023438 40.550781 C 64.023438 40.578125 64.023438 40.605469 64.023438 40.628906 C 64.023438 46.582031 64.027344 57.804688 64.042969 63.753906 C 64.042969 64.121094 63.933594 64.277344 63.585938 64.421875 C 63.5 64.457031 63.417969 64.496094 63.339844 64.535156 C 62.703125 65.65625 62.519531 66.980469 63.132812 68.175781 C 63.90625 69.910156 65.488281 70.753906 67.277344 70.941406 C 68.171875 70.351562 68.800781 69.425781 68.925781 68.402344 " fill-opacity="1" fill-rule="nonzero"/><g clip-path="url(#e9d0dd2679)"><path stroke-linecap="round" transform="matrix(0.0176964, 0, 0, -0.0172678, 58.163859, 74.63908)" fill="none" stroke-linejoin="miter" d="M 306.393975 591.689777 C 306.393975 591.689777 332.440899 598.023805 332.220162 630.372594 L 331.116479 1974.091501 " stroke="#293982" stroke-width="20" stroke-opacity="1" stroke-miterlimit="10"/></g><g clip-path="url(#5e6fe15b30)"><path stroke-linecap="round" transform="matrix(0.0176964, 0, 0, -0.0172678, 58.163859, 74.63908)" fill="none" stroke-linejoin="miter" d="M 177.704514 359.81909 C 177.704514 359.81909 205.958804 175.906047 386.742113 175.906047 " stroke="#293982" stroke-width="20" stroke-opacity="1" stroke-miterlimit="10"/></g><g clip-path="url(#feb0bac7d6)"><path stroke-linecap="round" transform="matrix(0.0176964, 0, 0, -0.0172678, 58.163859, 74.63908)" fill="none" stroke-linejoin="miter" d="M 393.805685 10.090229 C 393.805685 10.090229 43.938109 -2.804043 9.944667 359.81909 " stroke="#293982" stroke-width="20" stroke-opacity="1" stroke-miterlimit="10"/></g><g clip-path="url(#84138dfabc)"><path stroke-linecap="round" transform="matrix(0.0176964, 0, 0, -0.0172678, 58.163859, 74.63908)" fill="none" stroke-linejoin="miter" d="M 484.086971 22.305856 C 484.086971 22.305856 545.451757 30.902037 618.736322 81.800481 " stroke="#293982" stroke-width="20" stroke-opacity="1" stroke-miterlimit="10"/></g></svg>